<?xml version="1.0" standalone="no"?>
<!DOCTYPE svg PUBLIC "-//W3C//DTD SVG 20010904//EN"
 "http://www.w3.org/TR/2001/REC-SVG-20010904/DTD/svg10.dtd">
<svg version="1.0" xmlns="http://www.w3.org/2000/svg"
 width="250.000000pt" height="250.000000pt" viewBox="0 0 250.000000 250.000000"
 preserveAspectRatio="xMidYMid meet">
<metadata>
Created by potrace 1.14, written by Peter Selinger 2001-2017
</metadata>
<g transform="translate(0.000000,250.000000) scale(0.100000,-0.100000)"
fill="#000000" stroke="none">
<path d="M1185 2369 c-49 -4 -103 -10 -120 -13 -16 -3 -43 -8 -60 -12 -68 -12
-213 -68 -280 -107 -55 -32 -101 -63 -113 -74 -7 -7 -17 -13 -21 -13 -14 0
-167 -156 -207 -210 -146 -200 -218 -419 -217 -659 1 -72 11 -190 18 -201 2
-4 7 -22 10 -40 15 -86 80 -238 148 -345 47 -73 54 -82 149 -177 l88 -88 -207
-2 -207 -3 -1 -147 -1 -148 36 0 c260 -3 794 1 798 5 4 3 6 96 7 206 l0 201
-75 35 c-151 71 -259 167 -352 312 -27 42 -77 171 -93 241 -21 94 -14 283 14
375 89 287 309 487 606 550 120 26 319 7 435 -42 8 -3 17 -7 20 -8 3 0 25 -11
50 -24 201 -104 355 -307 407 -536 14 -63 8 -288 -11 -350 -9 -33 -18 -64 -20
-70 -20 -72 -100 -198 -175 -279 -50 -53 -176 -146 -198 -146 -7 0 -13 -4 -13
-10 0 -5 -6 -10 -13 -10 -16 0 -80 -30 -87 -41 -7 -10 -5 -397 2 -404 5 -5
299 -7 743 -5 l90 0 0 147 0 148 -208 3 -209 2 85 83 c283 277 393 663 296
1047 -6 25 -13 52 -16 60 -4 8 -7 21 -9 28 -1 8 -14 38 -28 68 -14 30 -26 57
-26 60 0 11 -106 170 -135 203 -195 224 -458 364 -724 387 -36 3 -70 6 -76 8
-5 1 -50 -1 -100 -5z"/>
</g>
</svg>
